<mxfile host="app.diagrams.net" modified="2023-05-26T11:15:58.823Z" agent="Mozilla/5.0 (Windows NT 10.0; Win64; x64) AppleWebKit/537.36 (KHTML, like Gecko) Chrome/113.0.0.0 Safari/537.36" version="21.1.0" etag="-mG-B3ZphWAcORMBxWQ0" type="github">
  <diagram name="Sida-1" id="VNe3bM0P-LqKC6V9h-Xf">
    <mxGraphModel>
      <root>
        <mxCell id="0" />
        <mxCell id="1" parent="0" />
      </root>
    </mxGraphModel>
  </diagram>
</mxfile>
